# Blender 3.4.0
# www.blender.org
o Cube
v 0.555556 0.555556 -0.555556
v 0.555556 -0.555556 -0.555556
v 0.555556 0.555556 0.555556
v 0.555556 -0.555556 0.555556
v -0.555556 0.555556 -0.555556
v -0.555556 -0.555556 -0.555556
v -0.555556 0.555556 0.555556
v -0.555556 -0.555556 0.555556
v -0.750000 -0.750000 0.000000
v 0.000000 -0.750000 -0.750000
v 0.750000 0.000000 -0.750000
v -0.750000 0.000000 0.750000
v 0.750000 0.000000 0.750000
v -0.750000 0.000000 -0.750000
v 0.000000 0.750000 0.750000
v 0.750000 0.750000 0.000000
v 0.000000 -0.750000 0.750000
v -0.750000 0.750000 0.000000
v 0.000000 0.750000 -0.750000
v 0.750000 -0.750000 0.000000
v 0.000000 1.000000 0.000000
v 0.000000 0.000000 1.000000
v -1.000000 0.000000 0.000000
v 0.000000 -1.000000 0.000000
v 1.000000 0.000000 0.000000
v 0.000000 0.000000 -1.000000
vn 0.3482 0.8704 -0.3482
vn -0.3482 0.8704 -0.3482
vn -0.3482 0.8704 0.3482
vn 0.3482 0.8704 0.3482
vn 0.3482 -0.3482 0.8704
vn 0.3482 0.3482 0.8704
vn -0.3482 0.3482 0.8704
vn -0.3482 -0.3482 0.8704
vn -0.8704 -0.3482 0.3482
vn -0.8704 0.3482 0.3482
vn -0.8704 0.3482 -0.3482
vn -0.8704 -0.3482 -0.3482
vn -0.3482 -0.8704 -0.3482
vn 0.3482 -0.8704 -0.3482
vn 0.3482 -0.8704 0.3482
vn -0.3482 -0.8704 0.3482
vn 0.8704 -0.3482 -0.3482
vn 0.8704 0.3482 -0.3482
vn 0.8704 0.3482 0.3482
vn 0.8704 -0.3482 0.3482
vn -0.3482 -0.3482 -0.8704
vn -0.3482 0.3482 -0.8704
vn 0.3482 0.3482 -0.8704
vn 0.3482 -0.3482 -0.8704
vt 0.625000 0.500000
vt 0.375000 0.500000
vt 0.625000 0.750000
vt 0.375000 0.750000
vt 0.875000 0.500000
vt 0.625000 0.250000
vt 0.125000 0.500000
vt 0.375000 0.250000
vt 0.875000 0.750000
vt 0.625000 1.000000
vt 0.625000 0.000000
vt 0.375000 1.000000
vt 0.375000 0.000000
vt 0.125000 0.750000
vt 0.375000 0.125000
vt 0.125000 0.625000
vt 0.250000 0.500000
vt 0.375000 0.375000
vt 0.500000 0.500000
vt 0.500000 1.000000
vt 0.500000 0.000000
vt 0.500000 0.750000
vt 0.500000 0.250000
vt 0.750000 0.750000
vt 0.625000 0.875000
vt 0.625000 0.625000
vt 0.375000 0.875000
vt 0.250000 0.750000
vt 0.875000 0.625000
vt 0.625000 0.125000
vt 0.750000 0.500000
vt 0.625000 0.375000
vt 0.375000 0.625000
vt 0.750000 0.625000
vt 0.500000 0.875000
vt 0.500000 0.125000
vt 0.250000 0.625000
vt 0.500000 0.625000
vt 0.500000 0.375000
s 0
f 1/1/1 19/31/1 21/34/1 16/26/1
f 19/31/2 5/5/2 18/29/2 21/34/2
f 21/34/3 18/29/3 7/9/3 15/24/3
f 16/26/4 21/34/4 15/24/4 3/3/4
f 4/4/5 13/22/5 22/35/5 17/27/5
f 13/22/6 3/3/6 15/25/6 22/35/6
f 22/35/7 15/25/7 7/10/7 12/20/7
f 17/27/8 22/35/8 12/20/8 8/12/8
f 8/13/9 12/21/9 23/36/9 9/15/9
f 12/21/10 7/11/10 18/30/10 23/36/10
f 23/36/11 18/30/11 5/6/11 14/23/11
f 9/15/12 23/36/12 14/23/12 6/8/12
f 6/7/13 10/17/13 24/37/13 9/16/13
f 10/17/14 2/2/14 20/33/14 24/37/14
f 24/37/15 20/33/15 4/4/15 17/28/15
f 9/16/16 24/37/16 17/28/16 8/14/16
f 2/2/17 11/19/17 25/38/17 20/33/17
f 11/19/18 1/1/18 16/26/18 25/38/18
f 25/38/19 16/26/19 3/3/19 13/22/19
f 20/33/20 25/38/20 13/22/20 4/4/20
f 6/8/21 14/23/21 26/39/21 10/18/21
f 14/23/22 5/6/22 19/32/22 26/39/22
f 26/39/23 19/32/23 1/1/23 11/19/23
f 10/18/24 26/39/24 11/19/24 2/2/24
