# This file uses centimeters as units for non-parametric coordinates.

v -0.500000 0.000000 0.500000
v 0.500000 0.000000 0.500000
v 0.500000 -0.000000 -0.500000
v -0.500000 -0.000000 -0.500000
v 0.500000 -0.000000 0.000000
v -0.500000 0.000000 0.000000
v -0.000000 0.750000 0.500000
v -0.000000 0.187500 0.000000
v -0.000000 0.328125 0.250000
v -0.500000 0.000000 0.250000
v -0.250000 0.562500 0.500000
v -0.250000 0.246094 0.250000
v -0.250000 0.140625 0.000000
v 0.500000 0.000000 0.250000
v 0.250000 0.562500 0.500000
v 0.250000 0.246094 0.250000
v 0.250000 0.140625 0.000000
v -0.000000 0.750000 -0.500000
v -0.500000 -0.000000 -0.250000
v -0.000000 0.328125 -0.250000
v -0.250000 0.246094 -0.250000
v -0.250000 0.562500 -0.500000
v 0.500000 -0.000000 -0.250000
v 0.250000 0.246094 -0.250000
v 0.250000 0.562500 -0.500000
vt 0.000000 0.000000
vt 1.000000 0.000000
vt 1.000000 1.000000
vt 0.000000 1.000000
vt 1.000000 0.500000
vt 0.000000 0.500000
vt 0.500000 0.000000
vt 0.500000 0.500000
vt 0.500000 0.250000
vt 0.000000 0.250000
vt 0.250000 0.000000
vt 0.250000 0.250000
vt 0.250000 0.500000
vt 1.000000 0.250000
vt 0.750000 0.000000
vt 0.750000 0.250000
vt 0.750000 0.500000
vt 0.500000 1.000000
vt 0.000000 0.750000
vt 0.500000 0.750000
vt 0.250000 0.750000
vt 0.250000 1.000000
vt 1.000000 0.750000
vt 0.750000 0.750000
vt 0.750000 1.000000
vn 0.740341 0.619370 0.261297
vn 0.807007 0.499019 0.315785
vn 0.462034 0.554887 0.691827
vn 0.583925 0.669969 0.458446
vn 0.740341 0.619370 -0.261297
vn 0.611799 0.791013 0.000000
vn 0.472724 0.881211 0.000000
vn 0.583925 0.669969 -0.458446
vn 0.000000 0.690156 -0.723660
vn 0.000000 1.000000 0.000000
vn -0.472724 0.881211 0.000000
vn -0.583925 0.669969 -0.458446
vn -0.462034 0.554887 -0.691827
vn 0.000000 0.560751 -0.827984
vn -0.807007 0.499019 -0.315785
vn -0.740341 0.619370 -0.261297
vn -0.611799 0.791013 0.000000
vn 0.462034 0.554887 -0.691827
vn 0.807007 0.499019 -0.315785
vn 0.000000 0.560751 0.827984
vn -0.462034 0.554887 0.691827
vn -0.583925 0.669969 0.458446
vn 0.000000 0.690156 0.723660
vn -0.740341 0.619370 0.261297
vn -0.807007 0.499019 0.315785
g nurbsToPoly1
f 23/23/1 3/3/2 25/25/3 24/24/4
f 14/14/5 5/5/6 17/17/7 16/16/8
f 9/9/9 8/8/10 13/13/11 12/12/12
f 11/11/13 7/7/14 9/9/9 12/12/12
f 1/1/15 11/11/13 12/12/12 10/10/16
f 13/13/11 6/6/17 10/10/16 12/12/12
f 15/15/18 2/2/19 14/14/5 16/16/8
f 7/7/14 15/15/18 16/16/8 9/9/9
f 17/17/7 8/8/10 9/9/9 16/16/8
f 18/18/20 22/22/21 21/21/22 20/20/23
f 13/13/11 8/8/10 20/20/23 21/21/22
f 19/19/24 6/6/17 13/13/11 21/21/22
f 22/22/21 4/4/25 19/19/24 21/21/22
f 5/5/6 23/23/1 24/24/4 17/17/7
f 24/24/4 20/20/23 8/8/10 17/17/7
f 25/25/3 18/18/20 20/20/23 24/24/4
